<?xml version="1.0" encoding="iso-8859-1"?>
<!-- Generator: Adobe Illustrator 19.0.0, SVG Export Plug-In . SVG Version: 6.00 Build 0)  -->
<svg version="1.1" id="Layer_1" xmlns="http://www.w3.org/2000/svg" xmlns:xlink="http://www.w3.org/1999/xlink" x="0px" y="0px"
	 viewBox="0 0 512.009 512.009" style="enable-background:new 0 0 512.009 512.009;" xml:space="preserve">
<g>
	<g>
		<path d="M353.278,145.064h22.195c4.719,0,8.533-3.823,8.533-8.533s-3.814-8.533-8.533-8.533h-10.982
			c23.466-19.208,44.654-54.8,36.522-120.514C400.475,3.208,396.84,0,392.531,0c-38.963,0-73.189,18.884-91.203,48.255
			c-7.347-19.669-21.231-35.694-41.07-47.112c-2.637-1.519-5.879-1.519-8.516,0c-19.84,11.426-33.723,27.443-41.07,47.112
			C192.667,18.884,158.44,0,119.469,0c-4.301,0-7.936,3.208-8.465,7.484c-8.132,65.714,13.056,101.306,36.522,120.514h-10.991
			c-4.719,0-8.533,3.823-8.533,8.533s3.814,8.533,8.533,8.533h22.195c-56.558,61.26-133.032,190.597-97.739,279.709
			c22.937,57.898,87.312,87.235,191.297,87.235c2.423,0,4.898,0,7.321,0c104.079,0,168.471-29.337,191.408-87.235
			C486.311,335.662,409.836,206.324,353.278,145.064z M127.106,17.348c38.391,2.876,69.87,27.323,77.925,61.413
			c0.973,4.113,5.035,6.92,9.02,6.545c4.215-0.358,7.535-3.738,7.808-7.953c1.655-25.429,13.141-45.2,34.15-58.828
			c21.009,13.628,32.494,33.39,34.15,58.828c0.273,4.215,3.592,7.595,7.808,7.953c4.087,0.316,8.038-2.432,9.02-6.545
			c8.047-34.09,39.534-58.529,77.925-61.413c6.357,70.68-25.105,99.198-53.793,110.65H180.899
			C152.211,116.546,120.749,88.037,127.106,17.348z M435.154,418.485c-20.352,51.361-80.306,77.234-179.206,76.44
			c-1.212,0.009-2.389,0.009-3.592,0.009c-96.348,0-155.398-25.719-175.494-76.449c-33.373-84.24,48.776-218.979,105.769-273.42
			h146.745C386.37,199.506,468.519,334.245,435.154,418.485z"/>
	</g>
</g>
<g>
	<g>
		<path d="M264.533,308.884v-66.9c30.446,1.408,41.207,10.317,46.651,17.177c2.918,3.678,8.294,4.309,11.981,1.382
			s4.318-8.294,1.382-11.989c-11.767-14.831-31.01-22.365-60.014-23.594v-12.348c0-4.71-3.814-8.533-8.533-8.533
			c-4.719,0-8.533,3.823-8.533,8.533v12.535c-37.802,3.439-57.855,26.717-58.196,49.518c-0.333,21.862,17.647,44.654,58.196,48.963
			v65.919c-26.129-0.759-35.08-5.436-47.214-17.911c-3.294-3.379-8.695-3.456-12.066-0.171c-3.379,3.285-3.447,8.695-0.171,12.066
			c16.205,16.657,29.866,22.237,59.451,23.074v12.22c0,4.71,3.814,8.533,8.533,8.533c4.719,0,8.533-3.823,8.533-8.533v-12.561
			c34.491-3.055,60.082-20.795,62.07-44.023C327.406,352.984,324.906,322.631,264.533,308.884z M247.467,306.333
			c-28.484-3.593-41.343-17.766-41.138-31.402c0.23-14.669,14.489-29.533,41.138-32.503V306.333z M309.614,360.783
			c-1.075,12.467-18.082,25.489-45.072,28.262v-62.668C298.956,335.064,310.536,349.955,309.614,360.783z"/>
	</g>
</g>
<g>
</g>
<g>
</g>
<g>
</g>
<g>
</g>
<g>
</g>
<g>
</g>
<g>
</g>
<g>
</g>
<g>
</g>
<g>
</g>
<g>
</g>
<g>
</g>
<g>
</g>
<g>
</g>
<g>
</g>
</svg>
